<mxfile host="app.diagrams.net" modified="2024-04-24T23:16:25.119Z" agent="Mozilla/5.0 (Windows NT 10.0; Win64; x64) AppleWebKit/537.36 (KHTML, like Gecko) Chrome/124.0.0.0 Safari/537.36 Edg/124.0.0.0" etag="LokUqWVQF01aCKplu6h8" version="24.2.8" type="device">
  <diagram id="0" name="Страница — 1">
    <mxGraphModel dx="2018" dy="2014" grid="1" gridSize="10" guides="1" tooltips="1" connect="1" arrows="1" fold="1" page="1" pageScale="1" pageWidth="826" pageHeight="1169" background="#ffffff" math="0" shadow="0">
      <root>
        <mxCell id="0" />
        <mxCell id="1" parent="0" />
        <mxCell id="Z8U8VPkJoI3shqTOGNtv-1" value="" style="whiteSpace=wrap;html=1;rounded=0;" parent="1" vertex="1">
          <mxGeometry x="1" width="1280" height="720" as="geometry" />
        </mxCell>
        <mxCell id="Z8U8VPkJoI3shqTOGNtv-3" value="" style="rounded=0;whiteSpace=wrap;html=1;strokeColor=default;align=center;verticalAlign=middle;fontFamily=Helvetica;fontSize=12;fontColor=default;fillColor=default;" parent="1" vertex="1">
          <mxGeometry y="60" width="256" height="660" as="geometry" />
        </mxCell>
        <mxCell id="Z8U8VPkJoI3shqTOGNtv-37" value="" style="rounded=0;whiteSpace=wrap;html=1;align=left;verticalAlign=middle;fontFamily=Helvetica;fontSize=16;fontColor=default;fillColor=none;gradientColor=none;" parent="1" vertex="1">
          <mxGeometry x="10" y="70.51" width="236" height="639.49" as="geometry" />
        </mxCell>
        <mxCell id="Z8U8VPkJoI3shqTOGNtv-2" value="" style="rounded=0;whiteSpace=wrap;html=1;strokeColor=default;align=center;verticalAlign=middle;fontFamily=Helvetica;fontSize=12;fontColor=default;fillColor=default;" parent="1" vertex="1">
          <mxGeometry width="1280" height="60" as="geometry" />
        </mxCell>
        <mxCell id="Z8U8VPkJoI3shqTOGNtv-4" value="" style="rounded=0;whiteSpace=wrap;html=1;strokeColor=default;align=center;verticalAlign=middle;fontFamily=Helvetica;fontSize=12;fontColor=default;fillColor=default;" parent="1" vertex="1">
          <mxGeometry x="1024" y="60" width="256" height="660" as="geometry" />
        </mxCell>
        <mxCell id="Z8U8VPkJoI3shqTOGNtv-5" value="Дерево проекта" style="text;html=1;align=center;verticalAlign=middle;whiteSpace=wrap;rounded=0;fontFamily=Helvetica;fontSize=24;fontColor=default;fontStyle=1;" parent="1" vertex="1">
          <mxGeometry x="-370" y="374.74" width="230" height="30.51" as="geometry" />
        </mxCell>
        <mxCell id="Z8U8VPkJoI3shqTOGNtv-6" value="&lt;b&gt;v&lt;/b&gt; Документ" style="text;html=1;align=left;verticalAlign=middle;whiteSpace=wrap;rounded=0;fontFamily=Helvetica;fontSize=16;fontColor=default;" parent="1" vertex="1">
          <mxGeometry x="20" y="70.51" width="150" height="30" as="geometry" />
        </mxCell>
        <mxCell id="Z8U8VPkJoI3shqTOGNtv-7" value="" style="endArrow=classic;html=1;rounded=0;fontFamily=Helvetica;fontSize=12;fontColor=default;" parent="1" source="Z8U8VPkJoI3shqTOGNtv-5" target="Z8U8VPkJoI3shqTOGNtv-37" edge="1">
          <mxGeometry width="50" height="50" relative="1" as="geometry">
            <mxPoint x="90" y="340" as="sourcePoint" />
            <mxPoint x="140" y="290" as="targetPoint" />
          </mxGeometry>
        </mxCell>
        <mxCell id="Z8U8VPkJoI3shqTOGNtv-9" style="rounded=0;orthogonalLoop=1;jettySize=auto;html=1;fontFamily=Helvetica;fontSize=12;fontColor=default;" parent="1" source="Z8U8VPkJoI3shqTOGNtv-8" target="Z8U8VPkJoI3shqTOGNtv-2" edge="1">
          <mxGeometry relative="1" as="geometry" />
        </mxCell>
        <mxCell id="Z8U8VPkJoI3shqTOGNtv-8" value="Меню инструментов" style="text;html=1;align=center;verticalAlign=middle;whiteSpace=wrap;rounded=0;fontFamily=Helvetica;fontSize=24;fontColor=default;fontStyle=1;" parent="1" vertex="1">
          <mxGeometry x="500" y="-90" width="280" height="30.51" as="geometry" />
        </mxCell>
        <mxCell id="Z8U8VPkJoI3shqTOGNtv-13" value="&lt;b&gt;v&lt;/b&gt;&amp;nbsp;Тело" style="text;html=1;align=left;verticalAlign=middle;whiteSpace=wrap;rounded=0;fontFamily=Helvetica;fontSize=16;fontColor=default;" parent="1" vertex="1">
          <mxGeometry x="40" y="100.51" width="150" height="30" as="geometry" />
        </mxCell>
        <mxCell id="Z8U8VPkJoI3shqTOGNtv-14" value="&lt;b&gt;&lt;font color=&quot;#cccccc&quot;&gt;v&lt;/font&gt;&lt;/b&gt;&amp;nbsp;Кнопка" style="text;html=1;align=left;verticalAlign=middle;whiteSpace=wrap;rounded=0;fontFamily=Helvetica;fontSize=16;fontColor=default;labelBackgroundColor=none;fillColor=#CCCCCC;" parent="1" vertex="1">
          <mxGeometry x="60" y="130.51" width="150" height="30" as="geometry" />
        </mxCell>
        <mxCell id="Z8U8VPkJoI3shqTOGNtv-15" value="&lt;b&gt;v&lt;/b&gt;&amp;nbsp;Разделитель" style="text;html=1;align=left;verticalAlign=middle;whiteSpace=wrap;rounded=0;fontFamily=Helvetica;fontSize=16;fontColor=default;" parent="1" vertex="1">
          <mxGeometry x="60" y="160.51" width="150" height="30" as="geometry" />
        </mxCell>
        <mxCell id="Z8U8VPkJoI3shqTOGNtv-16" value="&lt;b&gt;&lt;font color=&quot;#ffffff&quot;&gt;v&lt;/font&gt;&lt;/b&gt;&amp;nbsp;Поле ввода" style="text;html=1;align=left;verticalAlign=middle;whiteSpace=wrap;rounded=0;fontFamily=Helvetica;fontSize=16;fontColor=default;" parent="1" vertex="1">
          <mxGeometry x="80" y="190.51" width="150" height="30" as="geometry" />
        </mxCell>
        <mxCell id="Z8U8VPkJoI3shqTOGNtv-17" value="&lt;b&gt;v&lt;/b&gt;&amp;nbsp;Кнопка" style="text;html=1;align=left;verticalAlign=middle;whiteSpace=wrap;rounded=0;fontFamily=Helvetica;fontSize=16;fontColor=default;" parent="1" vertex="1">
          <mxGeometry x="80" y="220.51" width="150" height="30" as="geometry" />
        </mxCell>
        <mxCell id="Z8U8VPkJoI3shqTOGNtv-19" value="&lt;font color=&quot;#ffffff&quot;&gt;&lt;b&gt;v&lt;/b&gt;&amp;nbsp;&lt;/font&gt;Изображение" style="text;html=1;align=left;verticalAlign=middle;whiteSpace=wrap;rounded=0;fontFamily=Helvetica;fontSize=16;fontColor=default;" parent="1" vertex="1">
          <mxGeometry x="100" y="250.51" width="150" height="30" as="geometry" />
        </mxCell>
        <mxCell id="Z8U8VPkJoI3shqTOGNtv-20" value="&lt;b&gt;&lt;font color=&quot;#ffffff&quot;&gt;v&lt;/font&gt;&lt;/b&gt;&amp;nbsp;Кнопка" style="text;html=1;align=left;verticalAlign=middle;whiteSpace=wrap;rounded=0;fontFamily=Helvetica;fontSize=16;fontColor=default;" parent="1" vertex="1">
          <mxGeometry x="60" y="280.51" width="150" height="30" as="geometry" />
        </mxCell>
        <mxCell id="Z8U8VPkJoI3shqTOGNtv-21" value="&lt;b&gt;&amp;gt;&lt;/b&gt; Разделитель" style="text;html=1;align=left;verticalAlign=middle;whiteSpace=wrap;rounded=0;fontFamily=Helvetica;fontSize=16;fontColor=default;" parent="1" vertex="1">
          <mxGeometry x="60" y="310.51" width="150" height="30" as="geometry" />
        </mxCell>
        <mxCell id="Z8U8VPkJoI3shqTOGNtv-22" value="&lt;b&gt;&lt;font color=&quot;#ffffff&quot;&gt;v&lt;/font&gt;&lt;/b&gt;&amp;nbsp;Кнопка" style="text;html=1;align=left;verticalAlign=middle;whiteSpace=wrap;rounded=0;fontFamily=Helvetica;fontSize=16;fontColor=default;" parent="1" vertex="1">
          <mxGeometry x="60" y="340.51" width="150" height="30" as="geometry" />
        </mxCell>
        <mxCell id="Z8U8VPkJoI3shqTOGNtv-23" value="&amp;nbsp;Предпросмотр" style="rounded=0;whiteSpace=wrap;html=1;align=left;verticalAlign=middle;fontFamily=Helvetica;fontSize=16;fontColor=default;fillColor=none;gradientColor=none;" parent="1" vertex="1">
          <mxGeometry x="270" y="76" width="120" height="34" as="geometry" />
        </mxCell>
        <mxCell id="Z8U8VPkJoI3shqTOGNtv-24" value="" style="rounded=0;whiteSpace=wrap;html=1;align=left;verticalAlign=middle;fontFamily=Helvetica;fontSize=16;fontColor=default;fillColor=none;gradientColor=none;" parent="1" vertex="1">
          <mxGeometry x="270" y="120.51" width="740" height="579.49" as="geometry" />
        </mxCell>
        <mxCell id="Z8U8VPkJoI3shqTOGNtv-25" value="Кнопка" style="rounded=0;whiteSpace=wrap;html=1;align=center;verticalAlign=middle;fontFamily=Helvetica;fontSize=16;fontColor=default;fillColor=none;gradientColor=none;" parent="1" vertex="1">
          <mxGeometry x="270" y="120.50999999999999" width="70" height="30" as="geometry" />
        </mxCell>
        <mxCell id="Z8U8VPkJoI3shqTOGNtv-27" value="Поле ввода" style="rounded=0;whiteSpace=wrap;html=1;align=left;verticalAlign=middle;fontFamily=Helvetica;fontSize=16;fontColor=default;fillColor=#D4E1F5;gradientColor=none;labelBackgroundColor=#D4E1F5;" parent="1" vertex="1">
          <mxGeometry x="270" y="151" width="120" height="19" as="geometry" />
        </mxCell>
        <mxCell id="Z8U8VPkJoI3shqTOGNtv-28" value="Кнопка-изображение" style="rounded=0;whiteSpace=wrap;html=1;align=center;verticalAlign=middle;fontFamily=Helvetica;fontSize=16;fontColor=default;fillColor=#D4E1F5;gradientColor=none;labelBackgroundColor=#D4E1F5;" parent="1" vertex="1">
          <mxGeometry x="270" y="170" width="150" height="99.49" as="geometry" />
        </mxCell>
        <mxCell id="Z8U8VPkJoI3shqTOGNtv-29" value="Кнопка" style="rounded=0;whiteSpace=wrap;html=1;align=center;verticalAlign=middle;fontFamily=Helvetica;fontSize=16;fontColor=default;fillColor=#D4E1F5;gradientColor=none;labelBackgroundColor=#D4E1F5;" parent="1" vertex="1">
          <mxGeometry x="270" y="270.51" width="70" height="30" as="geometry" />
        </mxCell>
        <mxCell id="Z8U8VPkJoI3shqTOGNtv-30" value="Кнопка" style="rounded=0;whiteSpace=wrap;html=1;align=center;verticalAlign=middle;fontFamily=Helvetica;fontSize=16;fontColor=default;fillColor=none;gradientColor=none;" parent="1" vertex="1">
          <mxGeometry x="270" y="300.51" width="70" height="30" as="geometry" />
        </mxCell>
        <mxCell id="Z8U8VPkJoI3shqTOGNtv-31" value="Поле ввода" style="rounded=0;whiteSpace=wrap;html=1;align=left;verticalAlign=middle;fontFamily=Helvetica;fontSize=16;fontColor=default;fillColor=#D5E8D4;gradientColor=none;labelBackgroundColor=#D5E8D4;" parent="1" vertex="1">
          <mxGeometry x="270" y="330.51" width="120" height="19" as="geometry" />
        </mxCell>
        <mxCell id="Z8U8VPkJoI3shqTOGNtv-32" value="Кнопка-изображение" style="rounded=0;whiteSpace=wrap;html=1;align=center;verticalAlign=middle;fontFamily=Helvetica;fontSize=16;fontColor=default;fillColor=#D5E8D4;gradientColor=none;labelBackgroundColor=#D5E8D4;" parent="1" vertex="1">
          <mxGeometry x="270" y="349.51" width="150" height="99.49" as="geometry" />
        </mxCell>
        <mxCell id="Z8U8VPkJoI3shqTOGNtv-33" value="Кнопка" style="rounded=0;whiteSpace=wrap;html=1;align=center;verticalAlign=middle;fontFamily=Helvetica;fontSize=16;fontColor=default;fillColor=#D5E8D4;gradientColor=none;labelBackgroundColor=#D5E8D4;" parent="1" vertex="1">
          <mxGeometry x="270" y="450.02" width="70" height="30" as="geometry" />
        </mxCell>
        <mxCell id="Z8U8VPkJoI3shqTOGNtv-34" value="Кнопка" style="rounded=0;whiteSpace=wrap;html=1;align=center;verticalAlign=middle;fontFamily=Helvetica;fontSize=16;fontColor=default;fillColor=none;gradientColor=none;" parent="1" vertex="1">
          <mxGeometry x="270" y="480.02" width="70" height="30" as="geometry" />
        </mxCell>
        <mxCell id="Z8U8VPkJoI3shqTOGNtv-36" style="edgeStyle=none;rounded=0;orthogonalLoop=1;jettySize=auto;html=1;strokeColor=default;align=center;verticalAlign=middle;fontFamily=Helvetica;fontSize=16;fontColor=default;labelBackgroundColor=default;endArrow=classic;" parent="1" source="Z8U8VPkJoI3shqTOGNtv-35" target="Z8U8VPkJoI3shqTOGNtv-24" edge="1">
          <mxGeometry relative="1" as="geometry" />
        </mxCell>
        <mxCell id="Z8U8VPkJoI3shqTOGNtv-35" value="Окно предпросмотра" style="text;html=1;align=center;verticalAlign=middle;whiteSpace=wrap;rounded=0;fontFamily=Helvetica;fontSize=24;fontColor=default;fontStyle=1;" parent="1" vertex="1">
          <mxGeometry x="500" y="830" width="280" height="30.51" as="geometry" />
        </mxCell>
        <mxCell id="Z8U8VPkJoI3shqTOGNtv-39" value="⚙️" style="rounded=0;whiteSpace=wrap;html=1;align=center;verticalAlign=middle;fontFamily=Helvetica;fontSize=16;fontColor=default;fillColor=none;gradientColor=none;" parent="1" vertex="1">
          <mxGeometry x="1024" y="60" width="36" height="36" as="geometry" />
        </mxCell>
        <mxCell id="Z8U8VPkJoI3shqTOGNtv-40" value="🖌️" style="rounded=0;whiteSpace=wrap;html=1;align=center;verticalAlign=middle;fontFamily=Helvetica;fontSize=16;fontColor=default;fillColor=#CCCCCC;gradientColor=none;" parent="1" vertex="1">
          <mxGeometry x="1024" y="96" width="36" height="36" as="geometry" />
        </mxCell>
        <mxCell id="Z8U8VPkJoI3shqTOGNtv-41" value="🖱️" style="rounded=0;whiteSpace=wrap;html=1;align=center;verticalAlign=middle;fontFamily=Helvetica;fontSize=16;fontColor=default;fillColor=none;gradientColor=none;" parent="1" vertex="1">
          <mxGeometry x="1024" y="168" width="36" height="36" as="geometry" />
        </mxCell>
        <mxCell id="Z8U8VPkJoI3shqTOGNtv-45" style="edgeStyle=none;rounded=0;orthogonalLoop=1;jettySize=auto;html=1;strokeColor=default;align=center;verticalAlign=middle;fontFamily=Helvetica;fontSize=16;fontColor=default;labelBackgroundColor=default;endArrow=classic;" parent="1" source="Z8U8VPkJoI3shqTOGNtv-42" target="Z8U8VPkJoI3shqTOGNtv-4" edge="1">
          <mxGeometry relative="1" as="geometry" />
        </mxCell>
        <mxCell id="Z8U8VPkJoI3shqTOGNtv-42" value="Редактор свойств" style="text;html=1;align=center;verticalAlign=middle;whiteSpace=wrap;rounded=0;fontFamily=Helvetica;fontSize=24;fontColor=default;fontStyle=1;" parent="1" vertex="1">
          <mxGeometry x="1410" y="375" width="222" height="30.51" as="geometry" />
        </mxCell>
        <mxCell id="Z8U8VPkJoI3shqTOGNtv-47" style="edgeStyle=none;rounded=0;orthogonalLoop=1;jettySize=auto;html=1;strokeColor=default;align=center;verticalAlign=middle;fontFamily=Helvetica;fontSize=16;fontColor=default;labelBackgroundColor=default;endArrow=classic;" parent="1" source="Z8U8VPkJoI3shqTOGNtv-46" edge="1">
          <mxGeometry relative="1" as="geometry">
            <mxPoint x="1043" y="296" as="targetPoint" />
          </mxGeometry>
        </mxCell>
        <mxCell id="Z8U8VPkJoI3shqTOGNtv-46" value="Панель блоков свойств" style="text;html=1;align=center;verticalAlign=middle;whiteSpace=wrap;rounded=0;fontFamily=Helvetica;fontSize=24;fontColor=default;fontStyle=1;" parent="1" vertex="1">
          <mxGeometry x="1348" y="280.51" width="290" height="30" as="geometry" />
        </mxCell>
        <mxCell id="Z8U8VPkJoI3shqTOGNtv-49" style="edgeStyle=none;rounded=0;orthogonalLoop=1;jettySize=auto;html=1;strokeColor=default;align=center;verticalAlign=middle;fontFamily=Helvetica;fontSize=16;fontColor=default;labelBackgroundColor=default;endArrow=classic;" parent="1" source="Z8U8VPkJoI3shqTOGNtv-48" target="Z8U8VPkJoI3shqTOGNtv-17" edge="1">
          <mxGeometry relative="1" as="geometry">
            <mxPoint x="-110" y="90" as="targetPoint" />
          </mxGeometry>
        </mxCell>
        <mxCell id="Z8U8VPkJoI3shqTOGNtv-50" style="edgeStyle=none;rounded=0;orthogonalLoop=1;jettySize=auto;html=1;strokeColor=default;align=center;verticalAlign=middle;fontFamily=Helvetica;fontSize=16;fontColor=default;labelBackgroundColor=default;endArrow=classic;" parent="1" source="Z8U8VPkJoI3shqTOGNtv-48" target="Z8U8VPkJoI3shqTOGNtv-21" edge="1">
          <mxGeometry relative="1" as="geometry" />
        </mxCell>
        <mxCell id="Z8U8VPkJoI3shqTOGNtv-51" style="edgeStyle=none;rounded=0;orthogonalLoop=1;jettySize=auto;html=1;strokeColor=default;align=center;verticalAlign=middle;fontFamily=Helvetica;fontSize=16;fontColor=default;labelBackgroundColor=default;endArrow=classic;" parent="1" source="Z8U8VPkJoI3shqTOGNtv-48" target="Z8U8VPkJoI3shqTOGNtv-16" edge="1">
          <mxGeometry relative="1" as="geometry" />
        </mxCell>
        <mxCell id="Z8U8VPkJoI3shqTOGNtv-48" value="Анимируемые объекты" style="text;html=1;align=center;verticalAlign=middle;whiteSpace=wrap;rounded=0;fontFamily=Helvetica;fontSize=24;fontColor=default;fontStyle=1;" parent="1" vertex="1">
          <mxGeometry x="-440" y="170" width="300" height="30.51" as="geometry" />
        </mxCell>
        <mxCell id="Z8U8VPkJoI3shqTOGNtv-53" style="edgeStyle=none;rounded=0;orthogonalLoop=1;jettySize=auto;html=1;strokeColor=default;align=center;verticalAlign=middle;fontFamily=Helvetica;fontSize=16;fontColor=default;labelBackgroundColor=default;endArrow=classic;" parent="1" source="Z8U8VPkJoI3shqTOGNtv-52" target="Z8U8VPkJoI3shqTOGNtv-14" edge="1">
          <mxGeometry relative="1" as="geometry" />
        </mxCell>
        <mxCell id="Z8U8VPkJoI3shqTOGNtv-52" value="Выбранный объект" style="text;html=1;align=center;verticalAlign=middle;whiteSpace=wrap;rounded=0;fontFamily=Helvetica;fontSize=24;fontColor=default;fontStyle=1;" parent="1" vertex="1">
          <mxGeometry x="-375" y="100.50999999999999" width="240" height="30.51" as="geometry" />
        </mxCell>
        <mxCell id="Z8U8VPkJoI3shqTOGNtv-55" style="edgeStyle=none;rounded=0;orthogonalLoop=1;jettySize=auto;html=1;strokeColor=default;align=center;verticalAlign=middle;fontFamily=Helvetica;fontSize=16;fontColor=default;labelBackgroundColor=default;endArrow=classic;" parent="1" source="Z8U8VPkJoI3shqTOGNtv-54" target="Z8U8VPkJoI3shqTOGNtv-40" edge="1">
          <mxGeometry relative="1" as="geometry" />
        </mxCell>
        <mxCell id="Z8U8VPkJoI3shqTOGNtv-54" value="Выбранный блок свойств" style="text;html=1;align=center;verticalAlign=middle;whiteSpace=wrap;rounded=0;fontFamily=Helvetica;fontSize=24;fontColor=default;fontStyle=1;" parent="1" vertex="1">
          <mxGeometry x="760" y="-40" width="318" height="30" as="geometry" />
        </mxCell>
        <mxCell id="Z8U8VPkJoI3shqTOGNtv-57" value="Класс" style="text;html=1;align=left;verticalAlign=middle;whiteSpace=wrap;rounded=0;fontFamily=Helvetica;fontSize=16;fontColor=default;fontStyle=1;strokeColor=none;strokeWidth=1;" parent="1" vertex="1">
          <mxGeometry x="1070" y="60.00000000000001" width="206" height="32" as="geometry" />
        </mxCell>
        <mxCell id="Z8U8VPkJoI3shqTOGNtv-58" value="" style="rounded=0;whiteSpace=wrap;html=1;align=left;verticalAlign=middle;fontFamily=Helvetica;fontSize=16;fontColor=default;fillColor=none;gradientColor=none;" parent="1" vertex="1">
          <mxGeometry x="1070" y="94.49" width="200" height="28.51" as="geometry" />
        </mxCell>
        <mxCell id="Z8U8VPkJoI3shqTOGNtv-60" value="Проект" style="rounded=0;whiteSpace=wrap;html=1;align=center;verticalAlign=middle;fontFamily=Helvetica;fontSize=16;fontColor=default;fillColor=none;gradientColor=none;" parent="1" vertex="1">
          <mxGeometry width="120" height="60" as="geometry" />
        </mxCell>
        <mxCell id="Z8U8VPkJoI3shqTOGNtv-61" value="Экспорт" style="rounded=0;whiteSpace=wrap;html=1;align=center;verticalAlign=middle;fontFamily=Helvetica;fontSize=16;fontColor=default;fillColor=none;gradientColor=none;" parent="1" vertex="1">
          <mxGeometry x="120" width="120" height="60" as="geometry" />
        </mxCell>
        <mxCell id="Z8U8VPkJoI3shqTOGNtv-62" value="О приложении" style="rounded=0;whiteSpace=wrap;html=1;align=center;verticalAlign=middle;fontFamily=Helvetica;fontSize=16;fontColor=default;fillColor=none;gradientColor=none;" parent="1" vertex="1">
          <mxGeometry x="240" width="120" height="60" as="geometry" />
        </mxCell>
        <mxCell id="Z8U8VPkJoI3shqTOGNtv-66" value="Стиль" style="text;html=1;align=left;verticalAlign=middle;whiteSpace=wrap;rounded=0;fontFamily=Helvetica;fontSize=16;fontColor=default;fontStyle=1;strokeColor=none;strokeWidth=1;" parent="1" vertex="1">
          <mxGeometry x="1070" y="134.49" width="206" height="32" as="geometry" />
        </mxCell>
        <mxCell id="Z8U8VPkJoI3shqTOGNtv-67" value="" style="rounded=0;whiteSpace=wrap;html=1;align=left;verticalAlign=middle;fontFamily=Helvetica;fontSize=16;fontColor=default;fillColor=none;gradientColor=none;" parent="1" vertex="1">
          <mxGeometry x="1070" y="167" width="200" height="30" as="geometry" />
        </mxCell>
        <mxCell id="Z8U8VPkJoI3shqTOGNtv-72" value="🖌️" style="rounded=0;whiteSpace=wrap;html=1;align=center;verticalAlign=middle;fontFamily=Helvetica;fontSize=16;fontColor=default;fillColor=#CCCCCC;gradientColor=none;" parent="1" vertex="1">
          <mxGeometry x="78" y="-380" width="86" height="50" as="geometry" />
        </mxCell>
        <mxCell id="Z8U8VPkJoI3shqTOGNtv-73" value="" style="rounded=0;whiteSpace=wrap;html=1;align=left;verticalAlign=middle;fontFamily=Helvetica;fontSize=16;fontColor=default;fillColor=none;gradientColor=none;" parent="1" vertex="1">
          <mxGeometry x="-1" y="-324.49" width="244" height="158" as="geometry" />
        </mxCell>
        <mxCell id="Z8U8VPkJoI3shqTOGNtv-74" value="" style="rounded=0;whiteSpace=wrap;html=1;align=left;verticalAlign=middle;fontFamily=Helvetica;fontSize=16;fontColor=default;fillColor=none;gradientColor=none;" parent="1" vertex="1">
          <mxGeometry x="3" y="-217.49" width="236" height="30" as="geometry" />
        </mxCell>
        <mxCell id="Z8U8VPkJoI3shqTOGNtv-75" value="Стиль" style="text;html=1;align=left;verticalAlign=middle;whiteSpace=wrap;rounded=0;fontFamily=Helvetica;fontSize=16;fontColor=default;fontStyle=1;strokeColor=none;strokeWidth=1;" parent="1" vertex="1">
          <mxGeometry x="1" y="-250" width="58" height="32" as="geometry" />
        </mxCell>
        <mxCell id="Z8U8VPkJoI3shqTOGNtv-76" value="" style="rounded=0;whiteSpace=wrap;html=1;align=left;verticalAlign=middle;fontFamily=Helvetica;fontSize=16;fontColor=default;fillColor=none;gradientColor=none;" parent="1" vertex="1">
          <mxGeometry x="3" y="-291.49" width="236" height="30" as="geometry" />
        </mxCell>
        <mxCell id="Z8U8VPkJoI3shqTOGNtv-77" value="Класс" style="text;html=1;align=left;verticalAlign=middle;whiteSpace=wrap;rounded=0;fontFamily=Helvetica;fontSize=16;fontColor=default;fontStyle=1;strokeColor=none;strokeWidth=1;" parent="1" vertex="1">
          <mxGeometry x="1" y="-324.49" width="58" height="32" as="geometry" />
        </mxCell>
        <mxCell id="Z8U8VPkJoI3shqTOGNtv-79" value="&lt;u style=&quot;font-size: 12px;&quot;&gt;GetBOPNameByType(BOPType type): string;&lt;/u&gt;&lt;div style=&quot;font-size: 12px;&quot;&gt;&lt;u style=&quot;font-size: 12px;&quot;&gt;GetBOPIconByType(BOPType type): Icon;&lt;/u&gt;&lt;u style=&quot;font-size: 12px;&quot;&gt;&lt;br style=&quot;font-size: 12px;&quot;&gt;&lt;/u&gt;&lt;/div&gt;" style="rounded=0;whiteSpace=wrap;html=1;align=left;verticalAlign=top;fontFamily=Lucida Console;fontSize=12;fontColor=default;fillColor=none;gradientColor=none;" parent="1" vertex="1">
          <mxGeometry x="302.5" y="-663" width="287.5" height="40" as="geometry" />
        </mxCell>
        <mxCell id="Z8U8VPkJoI3shqTOGNtv-82" value="&lt;font style=&quot;font-size: 12px;&quot;&gt;class Property {&lt;/font&gt;&lt;div&gt;&lt;span style=&quot;font-size: 12px;&quot;&gt;&amp;nbsp; &amp;nbsp; // Для экспорта в атрибут/&lt;/span&gt;&lt;/div&gt;&lt;div&gt;&lt;span style=&quot;font-size: 12px;&quot;&gt;&amp;nbsp; &amp;nbsp; // текст/элемент&lt;br&gt;&lt;/span&gt;&lt;div style=&quot;font-size: 12px;&quot;&gt;&lt;font style=&quot;font-size: 12px;&quot;&gt;&amp;nbsp; &amp;nbsp; IsAttribute: bool;&lt;/font&gt;&lt;/div&gt;&lt;div style=&quot;font-size: 12px;&quot;&gt;&lt;font style=&quot;font-size: 12px;&quot;&gt;&amp;nbsp; &amp;nbsp; // Для авто завершения&lt;/font&gt;&lt;/div&gt;&lt;div style=&quot;font-size: 12px;&quot;&gt;&lt;font style=&quot;font-size: 12px;&quot;&gt;&amp;nbsp; &amp;nbsp; ValueType: PropertyValueType;&lt;br&gt;&lt;/font&gt;&lt;div&gt;&lt;font style=&quot;font-size: 12px;&quot;&gt;&amp;nbsp; &amp;nbsp; Tag: string;&lt;/font&gt;&lt;/div&gt;&lt;div&gt;&lt;font style=&quot;font-size: 12px;&quot;&gt;&amp;nbsp; &amp;nbsp; Name: string;&lt;/font&gt;&lt;/div&gt;&lt;div&gt;&lt;span style=&quot;background-color: initial;&quot;&gt;&lt;font style=&quot;font-size: 12px;&quot;&gt;&amp;nbsp; &amp;nbsp; Value: string;&lt;/font&gt;&lt;/span&gt;&lt;/div&gt;&lt;div&gt;&lt;font style=&quot;font-size: 12px;&quot;&gt;}&lt;/font&gt;&lt;/div&gt;&lt;/div&gt;&lt;/div&gt;" style="rounded=0;whiteSpace=wrap;html=1;align=left;verticalAlign=top;fontFamily=Lucida Console;fontSize=14;fontColor=default;fillColor=none;gradientColor=none;" parent="1" vertex="1">
          <mxGeometry x="-320" y="-575.62" width="242" height="160.5" as="geometry" />
        </mxCell>
        <mxCell id="Z8U8VPkJoI3shqTOGNtv-88" value="🎞️" style="rounded=0;whiteSpace=wrap;html=1;align=center;verticalAlign=middle;fontFamily=Helvetica;fontSize=16;fontColor=default;fillColor=none;gradientColor=none;" parent="1" vertex="1">
          <mxGeometry x="1024" y="132" width="36" height="36" as="geometry" />
        </mxCell>
        <mxCell id="Z8U8VPkJoI3shqTOGNtv-92" style="edgeStyle=none;rounded=0;orthogonalLoop=1;jettySize=auto;html=1;strokeColor=default;align=center;verticalAlign=middle;fontFamily=Helvetica;fontSize=16;fontColor=default;labelBackgroundColor=default;endArrow=classic;" parent="1" source="Z8U8VPkJoI3shqTOGNtv-91" target="Z8U8VPkJoI3shqTOGNtv-73" edge="1">
          <mxGeometry relative="1" as="geometry" />
        </mxCell>
        <mxCell id="Z8U8VPkJoI3shqTOGNtv-93" style="edgeStyle=none;rounded=0;orthogonalLoop=1;jettySize=auto;html=1;strokeColor=default;align=center;verticalAlign=middle;fontFamily=Helvetica;fontSize=16;fontColor=default;labelBackgroundColor=default;endArrow=classic;" parent="1" source="Z8U8VPkJoI3shqTOGNtv-91" target="Z8U8VPkJoI3shqTOGNtv-72" edge="1">
          <mxGeometry relative="1" as="geometry" />
        </mxCell>
        <mxCell id="Z8U8VPkJoI3shqTOGNtv-91" value="&lt;p style=&quot;line-height: 120%;&quot;&gt;1) Иконка и текст подсказки через BlockOfPropertiesType;&lt;/p&gt;&lt;p style=&quot;line-height: 120%;&quot;&gt;2) Свойства - Property[];&lt;/p&gt;" style="rounded=0;whiteSpace=wrap;html=1;align=left;verticalAlign=top;fontFamily=Helvetica;fontSize=16;fontColor=default;fillColor=none;gradientColor=none;spacing=2;" parent="1" vertex="1">
          <mxGeometry x="359" y="-300" width="220" height="120" as="geometry" />
        </mxCell>
        <mxCell id="Z8U8VPkJoI3shqTOGNtv-95" style="edgeStyle=none;rounded=0;orthogonalLoop=1;jettySize=auto;html=1;strokeColor=default;align=center;verticalAlign=middle;fontFamily=Helvetica;fontSize=16;fontColor=default;labelBackgroundColor=default;endArrow=classic;" parent="1" source="Z8U8VPkJoI3shqTOGNtv-94" target="Z8U8VPkJoI3shqTOGNtv-77" edge="1">
          <mxGeometry relative="1" as="geometry" />
        </mxCell>
        <mxCell id="Z8U8VPkJoI3shqTOGNtv-96" style="edgeStyle=none;rounded=0;orthogonalLoop=1;jettySize=auto;html=1;strokeColor=default;align=center;verticalAlign=middle;fontFamily=Helvetica;fontSize=16;fontColor=default;labelBackgroundColor=default;endArrow=classic;" parent="1" source="Z8U8VPkJoI3shqTOGNtv-94" target="Z8U8VPkJoI3shqTOGNtv-76" edge="1">
          <mxGeometry relative="1" as="geometry" />
        </mxCell>
        <mxCell id="Z8U8VPkJoI3shqTOGNtv-94" value="&lt;p style=&quot;line-height: 120%;&quot;&gt;1)&amp;nbsp;&lt;span style=&quot;background-color: initial;&quot;&gt;Имя свойства, значения для автодополнения через PropertyType;&lt;/span&gt;&lt;/p&gt;" style="rounded=0;whiteSpace=wrap;html=1;align=left;verticalAlign=top;fontFamily=Helvetica;fontSize=16;fontColor=default;fillColor=none;gradientColor=none;" parent="1" vertex="1">
          <mxGeometry x="-309" y="-297.49" width="220" height="110" as="geometry" />
        </mxCell>
        <mxCell id="Z8U8VPkJoI3shqTOGNtv-97" value="" style="endArrow=none;dashed=1;html=1;dashPattern=1 3;strokeWidth=2;rounded=0;strokeColor=default;align=center;verticalAlign=middle;fontFamily=Helvetica;fontSize=16;fontColor=default;labelBackgroundColor=default;" parent="1" source="Z8U8VPkJoI3shqTOGNtv-94" target="Z8U8VPkJoI3shqTOGNtv-82" edge="1">
          <mxGeometry width="50" height="50" relative="1" as="geometry">
            <mxPoint x="-230" y="-330" as="sourcePoint" />
            <mxPoint x="-180" y="-380" as="targetPoint" />
          </mxGeometry>
        </mxCell>
        <mxCell id="t_jLpNkn2QuJKmLQ8jCM-1" value="&lt;span style=&quot;font-size: 16px;&quot;&gt;⚙️&lt;/span&gt;" style="rounded=0;whiteSpace=wrap;html=1;" parent="1" vertex="1">
          <mxGeometry x="980" y="-1070" width="36" height="36" as="geometry" />
        </mxCell>
        <mxCell id="t_jLpNkn2QuJKmLQ8jCM-2" value="Блоки свойств" style="text;html=1;align=center;verticalAlign=middle;whiteSpace=wrap;rounded=0;fontStyle=1;fontSize=16;" parent="1" vertex="1">
          <mxGeometry x="1169" y="-1169" width="140" height="30" as="geometry" />
        </mxCell>
        <mxCell id="t_jLpNkn2QuJKmLQ8jCM-3" value="ID, текст, атрибуты&amp;nbsp;" style="rounded=0;whiteSpace=wrap;html=1;" parent="1" vertex="1">
          <mxGeometry x="940" y="-1020" width="120" height="18" as="geometry" />
        </mxCell>
        <mxCell id="t_jLpNkn2QuJKmLQ8jCM-4" value="Главный" style="text;html=1;align=center;verticalAlign=middle;whiteSpace=wrap;rounded=0;" parent="1" vertex="1">
          <mxGeometry x="970" y="-1103" width="60" height="30" as="geometry" />
        </mxCell>
        <mxCell id="t_jLpNkn2QuJKmLQ8jCM-5" value="&lt;span style=&quot;font-size: 16px;&quot;&gt;🖌️&lt;/span&gt;" style="rounded=0;whiteSpace=wrap;html=1;" parent="1" vertex="1">
          <mxGeometry x="1140" y="-1070" width="36" height="36" as="geometry" />
        </mxCell>
        <mxCell id="t_jLpNkn2QuJKmLQ8jCM-6" value="классы, стиль" style="rounded=0;whiteSpace=wrap;html=1;" parent="1" vertex="1">
          <mxGeometry x="1100" y="-1020" width="120" height="18" as="geometry" />
        </mxCell>
        <mxCell id="t_jLpNkn2QuJKmLQ8jCM-7" value="Стиль" style="text;html=1;align=center;verticalAlign=middle;whiteSpace=wrap;rounded=0;" parent="1" vertex="1">
          <mxGeometry x="1130" y="-1103" width="60" height="30" as="geometry" />
        </mxCell>
        <mxCell id="t_jLpNkn2QuJKmLQ8jCM-8" value="&lt;span style=&quot;font-weight: 400;&quot;&gt;HTML-элемент&lt;/span&gt;" style="text;html=1;align=center;verticalAlign=middle;whiteSpace=wrap;rounded=0;fontStyle=1;fontSize=16;" parent="1" vertex="1">
          <mxGeometry x="1169" y="-1139" width="140" height="30" as="geometry" />
        </mxCell>
        <mxCell id="t_jLpNkn2QuJKmLQ8jCM-11" value="" style="endArrow=none;html=1;rounded=0;" parent="1" edge="1">
          <mxGeometry width="50" height="50" relative="1" as="geometry">
            <mxPoint x="940" y="-1139" as="sourcePoint" />
            <mxPoint x="1540" y="-1139" as="targetPoint" />
          </mxGeometry>
        </mxCell>
        <mxCell id="t_jLpNkn2QuJKmLQ8jCM-12" value="" style="endArrow=none;html=1;rounded=0;" parent="1" edge="1">
          <mxGeometry width="50" height="50" relative="1" as="geometry">
            <mxPoint x="939" y="-985.3" as="sourcePoint" />
            <mxPoint x="1540" y="-984" as="targetPoint" />
          </mxGeometry>
        </mxCell>
        <mxCell id="t_jLpNkn2QuJKmLQ8jCM-13" value="&lt;span style=&quot;font-size: 16px;&quot;&gt;🎞️&lt;/span&gt;" style="rounded=0;whiteSpace=wrap;html=1;" parent="1" vertex="1">
          <mxGeometry x="1299" y="-1070" width="36" height="36" as="geometry" />
        </mxCell>
        <mxCell id="t_jLpNkn2QuJKmLQ8jCM-14" value="изменяемый стиль&amp;nbsp;" style="rounded=0;whiteSpace=wrap;html=1;" parent="1" vertex="1">
          <mxGeometry x="1259" y="-1020" width="120" height="18" as="geometry" />
        </mxCell>
        <mxCell id="t_jLpNkn2QuJKmLQ8jCM-15" value="Анимация" style="text;html=1;align=center;verticalAlign=middle;whiteSpace=wrap;rounded=0;" parent="1" vertex="1">
          <mxGeometry x="1289" y="-1103" width="60" height="30" as="geometry" />
        </mxCell>
        <mxCell id="t_jLpNkn2QuJKmLQ8jCM-16" value="&lt;span style=&quot;font-size: 16px;&quot;&gt;🖱️&lt;/span&gt;" style="rounded=0;whiteSpace=wrap;html=1;" parent="1" vertex="1">
          <mxGeometry x="1459" y="-1070" width="36" height="36" as="geometry" />
        </mxCell>
        <mxCell id="t_jLpNkn2QuJKmLQ8jCM-18" value="Обработчики событий" style="text;html=1;align=center;verticalAlign=middle;whiteSpace=wrap;rounded=0;" parent="1" vertex="1">
          <mxGeometry x="1449" y="-1103" width="60" height="30" as="geometry" />
        </mxCell>
        <mxCell id="t_jLpNkn2QuJKmLQ8jCM-22" value="&lt;span style=&quot;font-size: 16px;&quot;&gt;🗂️&lt;/span&gt;" style="rounded=0;whiteSpace=wrap;html=1;" parent="1" vertex="1">
          <mxGeometry x="1139" y="-914" width="36" height="36" as="geometry" />
        </mxCell>
        <mxCell id="t_jLpNkn2QuJKmLQ8jCM-23" value="Таблица стилей" style="rounded=0;whiteSpace=wrap;html=1;" parent="1" vertex="1">
          <mxGeometry x="1099" y="-864" width="120" height="18" as="geometry" />
        </mxCell>
        <mxCell id="t_jLpNkn2QuJKmLQ8jCM-24" value="Таблица стилей" style="text;html=1;align=center;verticalAlign=middle;whiteSpace=wrap;rounded=0;" parent="1" vertex="1">
          <mxGeometry x="1129" y="-947" width="60" height="30" as="geometry" />
        </mxCell>
        <mxCell id="t_jLpNkn2QuJKmLQ8jCM-25" value="&lt;span style=&quot;font-weight: 400;&quot;&gt;HTML-элемент&amp;nbsp;&lt;/span&gt;&lt;span style=&quot;font-weight: 400;&quot;&gt;HTML&lt;/span&gt;" style="text;html=1;align=center;verticalAlign=middle;whiteSpace=wrap;rounded=0;fontStyle=1;fontSize=16;" parent="1" vertex="1">
          <mxGeometry x="1150" y="-984" width="176" height="30" as="geometry" />
        </mxCell>
        <mxCell id="t_jLpNkn2QuJKmLQ8jCM-26" value="" style="endArrow=none;html=1;rounded=0;" parent="1" edge="1">
          <mxGeometry width="50" height="50" relative="1" as="geometry">
            <mxPoint x="938" y="-831.3" as="sourcePoint" />
            <mxPoint x="1539" y="-830" as="targetPoint" />
          </mxGeometry>
        </mxCell>
        <mxCell id="t_jLpNkn2QuJKmLQ8jCM-27" value="📜" style="rounded=0;whiteSpace=wrap;html=1;" parent="1" vertex="1">
          <mxGeometry x="1298" y="-914" width="36" height="36" as="geometry" />
        </mxCell>
        <mxCell id="t_jLpNkn2QuJKmLQ8jCM-28" value="Скрипт документа" style="rounded=0;whiteSpace=wrap;html=1;" parent="1" vertex="1">
          <mxGeometry x="1258" y="-864" width="120" height="18" as="geometry" />
        </mxCell>
        <mxCell id="t_jLpNkn2QuJKmLQ8jCM-29" value="JavaScript скрипт" style="text;html=1;align=center;verticalAlign=middle;whiteSpace=wrap;rounded=0;" parent="1" vertex="1">
          <mxGeometry x="1288" y="-947" width="60" height="30" as="geometry" />
        </mxCell>
        <mxCell id="t_jLpNkn2QuJKmLQ8jCM-33" value="enum BlockOfPropertiesType {&lt;div style=&quot;font-size: 12px;&quot;&gt;&amp;nbsp; &amp;nbsp; Attributes&lt;/div&gt;&lt;div style=&quot;font-size: 12px;&quot;&gt;&amp;nbsp; &amp;nbsp; Text&lt;/div&gt;&lt;div style=&quot;font-size: 12px;&quot;&gt;&amp;nbsp; &amp;nbsp; Transform&lt;/div&gt;&lt;div style=&quot;font-size: 12px;&quot;&gt;&amp;nbsp; &amp;nbsp; Style&lt;/div&gt;&lt;div style=&quot;font-size: 12px;&quot;&gt;&amp;nbsp; &amp;nbsp; Events&lt;/div&gt;&lt;div style=&quot;font-size: 12px;&quot;&gt;&amp;nbsp; &amp;nbsp; StyleSheet,&lt;br style=&quot;font-size: 12px;&quot;&gt;&lt;/div&gt;&lt;div style=&quot;font-size: 12px;&quot;&gt;&amp;nbsp; &amp;nbsp; Script,&lt;/div&gt;&lt;div style=&quot;font-size: 12px;&quot;&gt;&lt;div style=&quot;font-size: 12px;&quot;&gt;}&lt;/div&gt;&lt;/div&gt;" style="rounded=0;whiteSpace=wrap;html=1;align=left;verticalAlign=top;fontFamily=Lucida Console;fontSize=12;fontColor=default;fillColor=none;gradientColor=none;shadow=0;" parent="1" vertex="1">
          <mxGeometry x="359" y="-564.74" width="210" height="138.74" as="geometry" />
        </mxCell>
        <mxCell id="t_jLpNkn2QuJKmLQ8jCM-35" value="Свойства, блоков свойств" style="text;html=1;align=center;verticalAlign=middle;whiteSpace=wrap;rounded=0;fontStyle=1;fontSize=16;" parent="1" vertex="1">
          <mxGeometry x="306" y="-1169" width="214" height="30" as="geometry" />
        </mxCell>
        <mxCell id="t_jLpNkn2QuJKmLQ8jCM-36" value="" style="endArrow=none;html=1;rounded=0;" parent="1" edge="1">
          <mxGeometry width="50" height="50" relative="1" as="geometry">
            <mxPoint x="113" y="-1139" as="sourcePoint" />
            <mxPoint x="713" y="-1139" as="targetPoint" />
          </mxGeometry>
        </mxCell>
        <mxCell id="t_jLpNkn2QuJKmLQ8jCM-38" value="&amp;lt;div id=&quot;v1&quot; style=&quot;v2&quot; class=&quot;v3&quot; attr1=&quot;v4&quot; onclick=&quot;v5&quot;&amp;gt;&lt;div style=&quot;font-size: 12px;&quot;&gt;&amp;nbsp; &amp;nbsp; Test text (v6)&lt;/div&gt;&lt;div style=&quot;font-size: 12px;&quot;&gt;&amp;nbsp; &amp;nbsp; &amp;lt;div&amp;gt;&amp;lt;/div&amp;gt;&lt;/div&gt;&lt;div style=&quot;font-size: 12px;&quot;&gt;&amp;nbsp; &amp;nbsp; &amp;lt;p&amp;gt;Some text (v7)&amp;lt;/p&amp;gt;&lt;/div&gt;&lt;div style=&quot;font-size: 12px;&quot;&gt;&amp;nbsp; &amp;nbsp; &amp;lt;img src=&quot;v8&quot; /&amp;gt;&lt;/div&gt;&lt;div style=&quot;font-size: 12px;&quot;&gt;&amp;lt;/div&amp;gt;&lt;/div&gt;" style="rounded=0;whiteSpace=wrap;html=1;align=left;verticalAlign=top;fontFamily=Lucida Console;fontSize=12;fontColor=default;fillColor=none;gradientColor=none;shadow=0;" parent="1" vertex="1">
          <mxGeometry x="195" y="-1108" width="437" height="98" as="geometry" />
        </mxCell>
        <mxCell id="t_jLpNkn2QuJKmLQ8jCM-39" value="&lt;span style=&quot;font-weight: 400;&quot;&gt;HTML-элемент&lt;/span&gt;" style="text;html=1;align=center;verticalAlign=middle;whiteSpace=wrap;rounded=0;fontStyle=1;fontSize=16;" parent="1" vertex="1">
          <mxGeometry x="353" y="-1138" width="120" height="30" as="geometry" />
        </mxCell>
        <mxCell id="t_jLpNkn2QuJKmLQ8jCM-41" value="&lt;span style=&quot;font-weight: 400;&quot;&gt;HTML-элемент, как объект класса &quot;HtmlElement&quot;&lt;/span&gt;" style="text;html=1;align=center;verticalAlign=middle;whiteSpace=wrap;rounded=0;fontStyle=1;fontSize=16;" parent="1" vertex="1">
          <mxGeometry x="226" y="-988" width="374" height="30" as="geometry" />
        </mxCell>
        <mxCell id="t_jLpNkn2QuJKmLQ8jCM-42" value="" style="endArrow=none;html=1;rounded=0;" parent="1" edge="1">
          <mxGeometry width="50" height="50" relative="1" as="geometry">
            <mxPoint x="113" y="-989" as="sourcePoint" />
            <mxPoint x="713" y="-989" as="targetPoint" />
          </mxGeometry>
        </mxCell>
        <mxCell id="t_jLpNkn2QuJKmLQ8jCM-43" value="&lt;b&gt;Тип элемента&lt;/b&gt;: Div" style="rounded=0;whiteSpace=wrap;html=1;verticalAlign=middle;" parent="1" vertex="1">
          <mxGeometry x="119" y="-944" width="120" height="30" as="geometry" />
        </mxCell>
        <mxCell id="t_jLpNkn2QuJKmLQ8jCM-47" value="class HtmlElement {&lt;div style=&quot;font-size: 12px;&quot;&gt;&amp;nbsp; &amp;nbsp; ElementName: string;&lt;/div&gt;&lt;div style=&quot;font-size: 12px;&quot;&gt;&amp;nbsp; &amp;nbsp; ElementType:&amp;nbsp;&lt;span style=&quot;background-color: initial; font-size: 12px;&quot;&gt;XmlElementType;&lt;/span&gt;&lt;/div&gt;&lt;div style=&quot;font-size: 12px;&quot;&gt;&amp;nbsp; &amp;nbsp; Blocks: BlockOfProperties[];&lt;/div&gt;&lt;div style=&quot;font-size: 12px;&quot;&gt;&amp;nbsp; &amp;nbsp; Children: List&amp;lt;XmlElement&amp;gt;&lt;/div&gt;&lt;div style=&quot;font-size: 12px;&quot;&gt;}&lt;/div&gt;" style="rounded=0;whiteSpace=wrap;html=1;align=left;verticalAlign=top;fontFamily=Lucida Console;fontSize=12;fontColor=default;fillColor=none;gradientColor=none;" parent="1" vertex="1">
          <mxGeometry x="6" y="-693" width="235" height="100" as="geometry" />
        </mxCell>
        <mxCell id="t_jLpNkn2QuJKmLQ8jCM-51" value="enum XmlElementType&amp;nbsp;{&lt;div style=&quot;font-size: 12px;&quot;&gt;&amp;nbsp; &amp;nbsp; Custom,&lt;/div&gt;&lt;div style=&quot;font-size: 12px;&quot;&gt;&amp;nbsp; &amp;nbsp; Regular,&lt;/div&gt;&lt;div style=&quot;font-size: 12px;&quot;&gt;&amp;nbsp; &amp;nbsp; Media,&lt;/div&gt;&lt;div style=&quot;font-size: 12px;&quot;&gt;&amp;nbsp; &amp;nbsp; Interactive,&lt;/div&gt;&lt;div style=&quot;font-size: 12px;&quot;&gt;&lt;div style=&quot;font-size: 12px;&quot;&gt;}&lt;/div&gt;&lt;/div&gt;" style="rounded=0;whiteSpace=wrap;html=1;align=left;verticalAlign=top;fontFamily=Lucida Console;fontSize=12;fontColor=default;fillColor=none;gradientColor=none;shadow=0;" parent="1" vertex="1">
          <mxGeometry x="-220" y="-687" width="157" height="94" as="geometry" />
        </mxCell>
        <mxCell id="t_jLpNkn2QuJKmLQ8jCM-52" value="" style="endArrow=open;html=1;rounded=0;endFill=0;endSize=16;" parent="1" source="t_jLpNkn2QuJKmLQ8jCM-51" target="t_jLpNkn2QuJKmLQ8jCM-47" edge="1">
          <mxGeometry width="50" height="50" relative="1" as="geometry">
            <mxPoint x="-68" y="-493" as="sourcePoint" />
            <mxPoint x="-10" y="-493" as="targetPoint" />
          </mxGeometry>
        </mxCell>
        <mxCell id="t_jLpNkn2QuJKmLQ8jCM-53" value="&lt;b&gt;Блоки &lt;/b&gt;&lt;i&gt;(4)&lt;/i&gt;: Главный, Стиль, Анимационный стиль, Обработчики событий" style="rounded=0;whiteSpace=wrap;html=1;verticalAlign=middle;" parent="1" vertex="1">
          <mxGeometry x="270" y="-944" width="440" height="30" as="geometry" />
        </mxCell>
        <mxCell id="t_jLpNkn2QuJKmLQ8jCM-55" value="код для событий" style="rounded=0;whiteSpace=wrap;html=1;" parent="1" vertex="1">
          <mxGeometry x="1419" y="-1020" width="120" height="18" as="geometry" />
        </mxCell>
        <mxCell id="2-AsORQb2hmMWzX_NaEA-1" value="Изначально типы свойств могут быть любыми, но при экспорте, их можно переделать в XML.&lt;br&gt;Типы свойств: Текст; Атрибут; XML-элемент с текстом внутри." style="text;html=1;align=center;verticalAlign=middle;whiteSpace=wrap;rounded=0;" parent="1" vertex="1">
          <mxGeometry x="-250" y="-1154.5" width="330" height="63" as="geometry" />
        </mxCell>
        <mxCell id="OQT7il8lMR7ONTnsRUe7-1" value="" style="endArrow=none;html=1;rounded=0;entryX=1;entryY=0;entryDx=0;entryDy=0;exitX=0.141;exitY=1.002;exitDx=0;exitDy=0;exitPerimeter=0;" parent="1" source="Z8U8VPkJoI3shqTOGNtv-4" target="Z8U8VPkJoI3shqTOGNtv-39" edge="1">
          <mxGeometry width="50" height="50" relative="1" as="geometry">
            <mxPoint x="1360" y="650" as="sourcePoint" />
            <mxPoint x="1000" y="330" as="targetPoint" />
          </mxGeometry>
        </mxCell>
        <mxCell id="DNp8_C3Z_0mpF717G_3x-1" value="enum PropertyValueType {&lt;div style=&quot;font-size: 12px;&quot;&gt;&amp;nbsp; &amp;nbsp; None,&lt;/div&gt;&lt;div style=&quot;font-size: 12px;&quot;&gt;&amp;nbsp; &amp;nbsp; Value,&lt;br&gt;&lt;/div&gt;&lt;div style=&quot;font-size: 12px;&quot;&gt;&amp;nbsp; &amp;nbsp; Attribute,&lt;/div&gt;&lt;div style=&quot;font-size: 12px;&quot;&gt;&amp;nbsp; &amp;nbsp; Style,&lt;/div&gt;&lt;div style=&quot;font-size: 12px;&quot;&gt;&amp;nbsp; &amp;nbsp; Script,&lt;/div&gt;&lt;div style=&quot;font-size: 12px;&quot;&gt;&lt;div style=&quot;font-size: 12px;&quot;&gt;&amp;nbsp; &amp;nbsp; Event,&lt;/div&gt;&lt;div style=&quot;font-size: 12px;&quot;&gt;}&lt;/div&gt;&lt;/div&gt;" style="rounded=0;whiteSpace=wrap;html=1;align=left;verticalAlign=top;fontFamily=Lucida Console;fontSize=12;fontColor=default;fillColor=none;gradientColor=none;shadow=0;" parent="1" vertex="1">
          <mxGeometry x="-580" y="-564.74" width="180" height="130" as="geometry" />
        </mxCell>
        <mxCell id="DNp8_C3Z_0mpF717G_3x-3" value="" style="endArrow=open;html=1;rounded=0;endFill=0;endSize=16;" parent="1" source="DNp8_C3Z_0mpF717G_3x-1" target="Z8U8VPkJoI3shqTOGNtv-82" edge="1">
          <mxGeometry width="50" height="50" relative="1" as="geometry">
            <mxPoint x="-390" y="-562" as="sourcePoint" />
            <mxPoint x="-310" y="-533" as="targetPoint" />
          </mxGeometry>
        </mxCell>
        <mxCell id="cCPbz9xCYpP6h7D6wDjs-2" value="Свойства элемента по умолчанию" style="text;html=1;align=center;verticalAlign=middle;whiteSpace=wrap;rounded=0;fontStyle=1;fontSize=16;" parent="1" vertex="1">
          <mxGeometry x="1098" y="-830" width="282" height="30" as="geometry" />
        </mxCell>
        <mxCell id="cCPbz9xCYpP6h7D6wDjs-3" value="" style="endArrow=none;html=1;rounded=0;" parent="1" edge="1">
          <mxGeometry width="50" height="50" relative="1" as="geometry">
            <mxPoint x="939" y="-800" as="sourcePoint" />
            <mxPoint x="1540" y="-798.7" as="targetPoint" />
          </mxGeometry>
        </mxCell>
        <mxCell id="cCPbz9xCYpP6h7D6wDjs-5" value="" style="rounded=0;whiteSpace=wrap;html=1;fillColor=none;" parent="1" vertex="1">
          <mxGeometry x="958" y="-760" width="122" height="80" as="geometry" />
        </mxCell>
        <mxCell id="cCPbz9xCYpP6h7D6wDjs-4" value="Div" style="rounded=0;whiteSpace=wrap;html=1;" parent="1" vertex="1">
          <mxGeometry x="970" y="-750" width="30" height="20" as="geometry" />
        </mxCell>
        <mxCell id="cCPbz9xCYpP6h7D6wDjs-7" value="&lt;font face=&quot;Lucida Console&quot; style=&quot;font-size: 12px;&quot;&gt;&lt;i style=&quot;&quot;&gt;XML&lt;/i&gt;: имя&lt;/font&gt;&lt;div style=&quot;&quot;&gt;&lt;font style=&quot;font-size: 12px;&quot;&gt;&lt;b style=&quot;&quot;&gt;&lt;font style=&quot;font-size: 12px;&quot; face=&quot;Lucida Console&quot;&gt;Attributes&lt;/font&gt;&lt;/b&gt;&lt;font style=&quot;font-size: 12px;&quot; face=&quot;d74rId_4od4K26yCmTPn&quot;&gt;:&lt;/font&gt;&lt;font style=&quot;font-size: 12px;&quot; face=&quot;Lucida Console&quot;&gt; список `string : string`&lt;/font&gt;&lt;/font&gt;&lt;/div&gt;&lt;div style=&quot;&quot;&gt;&lt;font style=&quot;font-size: 12px;&quot;&gt;&lt;b&gt;Text&lt;/b&gt;: содержимое, размер шрифта, семья, стиль, вес/ширина&lt;br&gt;&lt;/font&gt;&lt;div style=&quot;&quot;&gt;&lt;font style=&quot;font-size: 12px;&quot;&gt;&lt;font style=&quot;font-size: 12px;&quot;&gt;&lt;b style=&quot;&quot;&gt;Transform&lt;/b&gt;&lt;font style=&quot;font-size: 12px;&quot; face=&quot;Fyn2pVKweQUbYIAb4b9m&quot;&gt;:&lt;/font&gt;&lt;/font&gt;&lt;font face=&quot;Lucida Console&quot; style=&quot;font-size: 12px;&quot;&gt; положение (X, Y), размер (ширина и высота),&amp;nbsp; поворот, увеличение (X&lt;span style=&quot;color: rgb(27, 27, 27);&quot;&gt;, Y), искажение (X, Y)&lt;/span&gt;&lt;/font&gt;&lt;/font&gt;&lt;/div&gt;&lt;div style=&quot;&quot;&gt;&lt;font face=&quot;Lucida Console&quot; style=&quot;font-size: 12px;&quot; color=&quot;#1b1b1b&quot;&gt;&lt;font style=&quot;font-size: 12px;&quot;&gt;&lt;b style=&quot;&quot;&gt;Style&lt;/b&gt;&lt;/font&gt;: атрибут &quot;class&quot;, атрибут &quot;style&quot;&lt;/font&gt;&lt;/div&gt;&lt;div style=&quot;&quot;&gt;&lt;font face=&quot;Lucida Console&quot; style=&quot;font-size: 12px;&quot;&gt;&lt;i style=&quot;&quot;&gt;Animation key frames&lt;/i&gt;: ключевые кадры (время в миллисекундах, список свойств)&lt;/font&gt;&lt;/div&gt;&lt;div style=&quot;&quot;&gt;&lt;font style=&quot;font-size: 12px;&quot;&gt;&lt;b&gt;Events&lt;/b&gt;: Добавить обработчик (onclick, onmouseover, ...; Обработчик: имя (onclick/...) и значение (JS code)) -&amp;nbsp;&lt;span style=&quot;background-color: initial;&quot;&gt;`string : string`&lt;/span&gt;&lt;/font&gt;&lt;/div&gt;&lt;div style=&quot;&quot;&gt;&lt;font face=&quot;Fyn2pVKweQUbYIAb4b9m&quot; style=&quot;font-size: 12px;&quot;&gt;&lt;br&gt;&lt;/font&gt;&lt;/div&gt;&lt;div style=&quot;&quot;&gt;&lt;font face=&quot;Lucida Console&quot; style=&quot;font-size: 12px;&quot;&gt;Html element: тип и список Properties&lt;/font&gt;&lt;/div&gt;&lt;/div&gt;" style="rounded=0;whiteSpace=wrap;html=1;align=left;verticalAlign=top;fontFamily=Lucida Console;fontSize=12;shadow=0;fillColor=none;glass=0;" parent="1" vertex="1">
          <mxGeometry x="1120" y="-760" width="370" height="230" as="geometry" />
        </mxCell>
        <mxCell id="NjdJJcQmFO2gKsIwQTiQ-1" value="class BlockOfProperties {&lt;div style=&quot;font-size: 12px;&quot;&gt;&amp;nbsp; &amp;nbsp;&amp;nbsp;&lt;span style=&quot;background-color: initial;&quot;&gt;Type:&amp;nbsp;&lt;/span&gt;BlockOfPropertiesType&lt;/div&gt;&lt;div style=&quot;font-size: 12px;&quot;&gt;&amp;nbsp; &amp;nbsp; Properties: Properties[]&lt;/div&gt;&lt;div style=&quot;font-size: 12px;&quot;&gt;}&lt;/div&gt;" style="rounded=0;whiteSpace=wrap;html=1;align=left;verticalAlign=top;fontFamily=Lucida Console;fontSize=12;fontColor=default;fillColor=none;gradientColor=none;" parent="1" vertex="1">
          <mxGeometry x="5" y="-527.87" width="235" height="65.25" as="geometry" />
        </mxCell>
        <mxCell id="NjdJJcQmFO2gKsIwQTiQ-2" value="" style="endArrow=none;dashed=1;html=1;dashPattern=1 3;strokeWidth=2;rounded=0;strokeColor=default;align=center;verticalAlign=middle;fontFamily=Helvetica;fontSize=16;fontColor=default;labelBackgroundColor=default;" parent="1" source="Z8U8VPkJoI3shqTOGNtv-72" target="NjdJJcQmFO2gKsIwQTiQ-1" edge="1">
          <mxGeometry width="50" height="50" relative="1" as="geometry">
            <mxPoint x="-189" y="-287" as="sourcePoint" />
            <mxPoint x="-189" y="-430" as="targetPoint" />
          </mxGeometry>
        </mxCell>
        <mxCell id="NjdJJcQmFO2gKsIwQTiQ-3" value="" style="endArrow=open;html=1;rounded=0;endFill=0;endSize=16;" parent="1" source="Z8U8VPkJoI3shqTOGNtv-82" target="NjdJJcQmFO2gKsIwQTiQ-1" edge="1">
          <mxGeometry width="50" height="50" relative="1" as="geometry">
            <mxPoint x="-53" y="-631" as="sourcePoint" />
            <mxPoint x="13" y="-632" as="targetPoint" />
          </mxGeometry>
        </mxCell>
        <mxCell id="NjdJJcQmFO2gKsIwQTiQ-4" value="" style="endArrow=open;html=1;rounded=0;endFill=0;endSize=16;" parent="1" source="t_jLpNkn2QuJKmLQ8jCM-33" target="NjdJJcQmFO2gKsIwQTiQ-1" edge="1">
          <mxGeometry width="50" height="50" relative="1" as="geometry">
            <mxPoint x="-68" y="-485" as="sourcePoint" />
            <mxPoint x="15" y="-485" as="targetPoint" />
          </mxGeometry>
        </mxCell>
        <mxCell id="NjdJJcQmFO2gKsIwQTiQ-6" value="" style="endArrow=diamondThin;html=1;rounded=0;endFill=1;endSize=16;" parent="1" source="t_jLpNkn2QuJKmLQ8jCM-47" target="NjdJJcQmFO2gKsIwQTiQ-1" edge="1">
          <mxGeometry width="50" height="50" relative="1" as="geometry">
            <mxPoint x="370" y="-499" as="sourcePoint" />
            <mxPoint x="250" y="-492" as="targetPoint" />
          </mxGeometry>
        </mxCell>
        <mxCell id="NjdJJcQmFO2gKsIwQTiQ-7" value="" style="endArrow=none;dashed=1;html=1;dashPattern=1 3;strokeWidth=2;rounded=0;strokeColor=default;align=center;verticalAlign=middle;fontFamily=Helvetica;fontSize=16;fontColor=default;labelBackgroundColor=default;" parent="1" source="Z8U8VPkJoI3shqTOGNtv-79" target="NjdJJcQmFO2gKsIwQTiQ-1" edge="1">
          <mxGeometry width="50" height="50" relative="1" as="geometry">
            <mxPoint x="131" y="-370" as="sourcePoint" />
            <mxPoint x="132" y="-453" as="targetPoint" />
          </mxGeometry>
        </mxCell>
        <mxCell id="Foh2Kk8HM4FwHxPDIu6I-6" value="" style="group;align=left;" parent="1" vertex="1" connectable="0">
          <mxGeometry x="1652" y="-1120" width="230" height="130" as="geometry" />
        </mxCell>
        <mxCell id="Foh2Kk8HM4FwHxPDIu6I-7" value="XmlElement" style="rounded=1;whiteSpace=wrap;html=1;fillColor=none;verticalAlign=top;fontStyle=5" parent="Foh2Kk8HM4FwHxPDIu6I-6" vertex="1">
          <mxGeometry width="230" height="130" as="geometry" />
        </mxCell>
        <mxCell id="Foh2Kk8HM4FwHxPDIu6I-8" value="Свойства" style="rounded=1;whiteSpace=wrap;html=1;strokeColor=default;align=center;verticalAlign=top;fontFamily=Helvetica;fontSize=12;fontColor=default;fontStyle=5;fillColor=none;perimeterSpacing=0;glass=0;" parent="Foh2Kk8HM4FwHxPDIu6I-6" vertex="1">
          <mxGeometry x="8.214285714285715" y="25.0375155279503" width="213.57142857142858" height="103.35403726708076" as="geometry" />
        </mxCell>
        <mxCell id="Foh2Kk8HM4FwHxPDIu6I-9" value="&lt;ul style=&quot;padding-left: 20px; margin-top: 0px; margin-bottom: 0px;&quot;&gt;&lt;li&gt;Tag/Name: string&lt;/li&gt;&lt;li&gt;Attributes: Dictionary&amp;lt;string, string&amp;gt;&lt;/li&gt;&lt;li&gt;Text: string&lt;/li&gt;&lt;li&gt;Children: List&amp;lt;XmlElement&amp;gt;&lt;/li&gt;&lt;/ul&gt;" style="text;html=1;align=left;verticalAlign=middle;whiteSpace=wrap;rounded=0;fontFamily=Helvetica;fontSize=12;fontColor=default;fontStyle=0;labelPosition=center;verticalLabelPosition=middle;" parent="Foh2Kk8HM4FwHxPDIu6I-6" vertex="1">
          <mxGeometry x="8.21" y="50" width="213.57" height="80" as="geometry" />
        </mxCell>
        <mxCell id="Foh2Kk8HM4FwHxPDIu6I-11" value="" style="group;align=left;" parent="1" vertex="1" connectable="0">
          <mxGeometry x="1920" y="-1120" width="280" height="120" as="geometry" />
        </mxCell>
        <mxCell id="Foh2Kk8HM4FwHxPDIu6I-12" value="HtmlElement as obj with blocks of props" style="rounded=1;whiteSpace=wrap;html=1;fillColor=none;verticalAlign=top;fontStyle=5" parent="Foh2Kk8HM4FwHxPDIu6I-11" vertex="1">
          <mxGeometry width="280" height="120" as="geometry" />
        </mxCell>
        <mxCell id="Foh2Kk8HM4FwHxPDIu6I-13" value="Свойства" style="rounded=1;whiteSpace=wrap;html=1;strokeColor=default;align=center;verticalAlign=top;fontFamily=Helvetica;fontSize=12;fontColor=default;fontStyle=5;fillColor=none;perimeterSpacing=0;glass=0;" parent="Foh2Kk8HM4FwHxPDIu6I-11" vertex="1">
          <mxGeometry x="10.000000000000002" y="23.11155279503105" width="260.00000000000006" height="95.40372670807454" as="geometry" />
        </mxCell>
        <mxCell id="Foh2Kk8HM4FwHxPDIu6I-14" value="&lt;ul style=&quot;padding-left: 20px; margin-top: 0px; margin-bottom: 0px;&quot;&gt;&lt;li&gt;Name: string&lt;/li&gt;&lt;li&gt;Tag: string&lt;/li&gt;&lt;li&gt;BlocksOfProperties: BlockOfProperties[]&lt;/li&gt;&lt;li&gt;Text: string&lt;/li&gt;&lt;li&gt;Children: List&amp;lt;HtmlElement&amp;gt;&lt;/li&gt;&lt;/ul&gt;" style="text;html=1;align=left;verticalAlign=middle;whiteSpace=wrap;rounded=0;fontFamily=Helvetica;fontSize=12;fontColor=default;fontStyle=0;labelPosition=center;verticalLabelPosition=middle;" parent="Foh2Kk8HM4FwHxPDIu6I-11" vertex="1">
          <mxGeometry x="9.994782608695655" y="46.15384615384615" width="259.99826086956523" height="73.84615384615385" as="geometry" />
        </mxCell>
        <mxCell id="Foh2Kk8HM4FwHxPDIu6I-15" value="" style="group;align=left;" parent="1" vertex="1" connectable="0">
          <mxGeometry x="1919.99" y="-960" width="280.01" height="120" as="geometry" />
        </mxCell>
        <mxCell id="Foh2Kk8HM4FwHxPDIu6I-16" value="BlockOfProperties" style="rounded=1;whiteSpace=wrap;html=1;fillColor=none;verticalAlign=top;fontStyle=5" parent="Foh2Kk8HM4FwHxPDIu6I-15" vertex="1">
          <mxGeometry width="280.01" height="120" as="geometry" />
        </mxCell>
        <mxCell id="Foh2Kk8HM4FwHxPDIu6I-17" value="Свойства" style="rounded=1;whiteSpace=wrap;html=1;strokeColor=default;align=center;verticalAlign=top;fontFamily=Helvetica;fontSize=12;fontColor=default;fontStyle=5;fillColor=none;perimeterSpacing=0;glass=0;" parent="Foh2Kk8HM4FwHxPDIu6I-15" vertex="1">
          <mxGeometry x="10" y="30" width="260.01" height="88.52" as="geometry" />
        </mxCell>
        <mxCell id="Foh2Kk8HM4FwHxPDIu6I-18" value="&lt;ul style=&quot;padding-left: 20px; margin-top: 0px; margin-bottom: 0px;&quot;&gt;&lt;li&gt;Type: BlockOfPropertiesType // enum&lt;/li&gt;&lt;li&gt;Properties: Property[]&lt;/li&gt;&lt;/ul&gt;" style="text;html=1;align=left;verticalAlign=middle;whiteSpace=wrap;rounded=0;fontFamily=Helvetica;fontSize=12;fontColor=default;fontStyle=0;labelPosition=center;verticalLabelPosition=middle;" parent="Foh2Kk8HM4FwHxPDIu6I-15" vertex="1">
          <mxGeometry x="9.995139565217395" y="46.15384615384615" width="260.0075465217392" height="73.84615384615385" as="geometry" />
        </mxCell>
        <mxCell id="Foh2Kk8HM4FwHxPDIu6I-23" value="" style="group;align=left;" parent="1" vertex="1" connectable="0">
          <mxGeometry x="1920" y="-800" width="280.01" height="160" as="geometry" />
        </mxCell>
        <mxCell id="Foh2Kk8HM4FwHxPDIu6I-24" value="Property" style="rounded=1;whiteSpace=wrap;html=1;fillColor=none;verticalAlign=top;fontStyle=5" parent="Foh2Kk8HM4FwHxPDIu6I-23" vertex="1">
          <mxGeometry width="280.01" height="160" as="geometry" />
        </mxCell>
        <mxCell id="Foh2Kk8HM4FwHxPDIu6I-25" value="Свойства" style="rounded=1;whiteSpace=wrap;html=1;strokeColor=default;align=center;verticalAlign=top;fontFamily=Helvetica;fontSize=12;fontColor=default;fontStyle=5;fillColor=none;perimeterSpacing=0;glass=0;" parent="Foh2Kk8HM4FwHxPDIu6I-23" vertex="1">
          <mxGeometry x="10.000357142857144" y="30.815403726708062" width="260.0092857142858" height="127.20496894409939" as="geometry" />
        </mxCell>
        <mxCell id="Foh2Kk8HM4FwHxPDIu6I-26" value="&lt;ul style=&quot;padding-left: 20px; margin-top: 0px; margin-bottom: 0px;&quot;&gt;&lt;li&gt;Name: string&lt;/li&gt;&lt;li&gt;Tag: string&lt;/li&gt;&lt;li&gt;ParentAttributeTag: string?&lt;/li&gt;&lt;/ul&gt;&lt;div&gt;&lt;/div&gt;&lt;ul style=&quot;padding-left: 20px; margin-top: 0px; margin-bottom: 0px;&quot;&gt;&lt;li&gt;Value: string&lt;/li&gt;&lt;li&gt;ValueType: PropertyValueType // enum&lt;/li&gt;&lt;/ul&gt;" style="text;html=1;align=left;verticalAlign=middle;whiteSpace=wrap;rounded=0;fontFamily=Helvetica;fontSize=12;fontColor=default;fontStyle=0;labelPosition=center;verticalLabelPosition=middle;" parent="Foh2Kk8HM4FwHxPDIu6I-23" vertex="1">
          <mxGeometry x="9.995139565217395" y="61.53846153846153" width="260.0075465217392" height="98.46153846153847" as="geometry" />
        </mxCell>
        <mxCell id="Foh2Kk8HM4FwHxPDIu6I-27" value="If `&lt;span style=&quot;text-align: left;&quot;&gt;ParentAttributeTag&lt;/span&gt;` is null, then it&#39;s whole attribute.&lt;div&gt;Otherwise,&amp;nbsp;&lt;span style=&quot;background-color: initial;&quot;&gt;this property is value of another attribute&lt;/span&gt;&lt;span style=&quot;background-color: initial;&quot;&gt;like, &#39;style&#39;.&lt;/span&gt;&lt;/div&gt;&lt;div&gt;&lt;br&gt;&lt;/div&gt;&lt;div&gt;`&lt;span style=&quot;text-align: left;&quot;&gt;ParentAttributeTag&lt;/span&gt;&lt;span style=&quot;background-color: initial;&quot;&gt;` is null =&amp;gt; $&quot;{Tag}=&#39;{Value}&#39;&quot;&lt;/span&gt;&lt;/div&gt;&lt;div&gt;`&lt;span style=&quot;text-align: left;&quot;&gt;ParentAttributeTag&lt;/span&gt;&lt;span style=&quot;background-color: initial;&quot;&gt;` is &#39;style&#39; =&amp;gt; $&quot;{Tag}: {Value}&quot;&lt;/span&gt;&lt;/div&gt;" style="text;html=1;align=center;verticalAlign=middle;whiteSpace=wrap;rounded=0;fontFamily=Helvetica;fontSize=12;fontColor=default;fontStyle=0;" parent="1" vertex="1">
          <mxGeometry x="2240" y="-800" width="200" height="160" as="geometry" />
        </mxCell>
        <mxCell id="Foh2Kk8HM4FwHxPDIu6I-28" value="`Name` - for name in GUI&lt;div&gt;`Tag` for export&lt;/div&gt;&lt;div&gt;`Text` - for export&lt;/div&gt;&lt;div&gt;`Children` - for export&lt;/div&gt;&lt;div&gt;Properties in `BlocksOfProperties` - for export, where property is attribute or attribute value part&amp;nbsp;&lt;/div&gt;&lt;div&gt;&lt;br&gt;&lt;/div&gt;&lt;div&gt;In the export function Html element will convert into Xml element with attributes, text and children&lt;/div&gt;" style="text;html=1;align=center;verticalAlign=middle;whiteSpace=wrap;rounded=0;fontFamily=Helvetica;fontSize=12;fontColor=default;fontStyle=0;" parent="1" vertex="1">
          <mxGeometry x="2240" y="-1135" width="200" height="160" as="geometry" />
        </mxCell>
        <mxCell id="Bwkm1TVjulACst57Qq1C-1" value="enum BlockOfPropertiesType {&lt;div style=&quot;font-size: 12px;&quot;&gt;&amp;nbsp; &amp;nbsp; Attributes&lt;/div&gt;&lt;div style=&quot;font-size: 12px;&quot;&gt;&amp;nbsp; &amp;nbsp; Text&lt;/div&gt;&lt;div style=&quot;font-size: 12px;&quot;&gt;&amp;nbsp; &amp;nbsp; Transform&lt;/div&gt;&lt;div style=&quot;font-size: 12px;&quot;&gt;&amp;nbsp; &amp;nbsp; Style&lt;/div&gt;&lt;div style=&quot;font-size: 12px;&quot;&gt;&amp;nbsp; &amp;nbsp; Events&lt;/div&gt;&lt;div style=&quot;font-size: 12px;&quot;&gt;&amp;nbsp; &amp;nbsp; StyleSheet,&lt;br style=&quot;font-size: 12px;&quot;&gt;&lt;/div&gt;&lt;div style=&quot;font-size: 12px;&quot;&gt;&amp;nbsp; &amp;nbsp; Script,&lt;/div&gt;&lt;div style=&quot;font-size: 12px;&quot;&gt;&lt;div style=&quot;font-size: 12px;&quot;&gt;}&lt;/div&gt;&lt;/div&gt;" style="rounded=0;whiteSpace=wrap;html=1;align=left;verticalAlign=top;fontFamily=Lucida Console;fontSize=12;fontColor=default;fillColor=none;gradientColor=none;shadow=0;" vertex="1" parent="1">
          <mxGeometry x="1662" y="-969.37" width="210" height="138.74" as="geometry" />
        </mxCell>
        <mxCell id="Bwkm1TVjulACst57Qq1C-2" value="enum PropertyValueType {&lt;div style=&quot;font-size: 12px;&quot;&gt;&amp;nbsp; &amp;nbsp; None,&lt;/div&gt;&lt;div style=&quot;font-size: 12px;&quot;&gt;&amp;nbsp; &amp;nbsp; Value,&lt;br&gt;&lt;/div&gt;&lt;div style=&quot;font-size: 12px;&quot;&gt;&amp;nbsp; &amp;nbsp; Attribute,&lt;/div&gt;&lt;div style=&quot;font-size: 12px;&quot;&gt;&amp;nbsp; &amp;nbsp; Style,&lt;/div&gt;&lt;div style=&quot;font-size: 12px;&quot;&gt;&amp;nbsp; &amp;nbsp; Script,&lt;/div&gt;&lt;div style=&quot;font-size: 12px;&quot;&gt;&lt;div style=&quot;font-size: 12px;&quot;&gt;&amp;nbsp; &amp;nbsp; Event,&lt;/div&gt;&lt;div style=&quot;font-size: 12px;&quot;&gt;}&lt;/div&gt;&lt;/div&gt;" style="rounded=0;whiteSpace=wrap;html=1;align=left;verticalAlign=top;fontFamily=Lucida Console;fontSize=12;fontColor=default;fillColor=none;gradientColor=none;shadow=0;" vertex="1" parent="1">
          <mxGeometry x="1677" y="-785" width="180" height="130" as="geometry" />
        </mxCell>
      </root>
    </mxGraphModel>
  </diagram>
</mxfile>
